<svg data-v-423bf9ae="" xmlns="http://www.w3.org/2000/svg" viewBox="0 0 335 90" class="iconLeftSlogan"><!----><!----><!----><g data-v-423bf9ae="" id="42f81a26-7a6c-497c-bdd8-05b7f3b42175" fill="white" transform="matrix(5.847953085917131,0,0,5.847953085917131,106.02339049849944,-14.093568154249859)"><path d="M2.73 2.42L0.68 2.42L0.68 8.91L0.68 8.91Q0.68 10.49 1.95 11.58L1.95 11.58L1.95 11.58Q3.21 12.67 5.13 12.67L5.13 12.67L5.13 12.67Q7.04 12.67 8.31 11.58L8.31 11.58L8.31 11.58Q9.57 10.49 9.57 8.91L9.57 8.91L9.57 2.42L7.52 2.42L7.52 8.37L7.52 8.37Q7.52 9.53 6.84 10.08L6.84 10.08L6.84 10.08Q6.15 10.62 5.13 10.62L5.13 10.62L5.13 10.62Q4.10 10.62 3.42 10.08L3.42 10.08L3.42 10.08Q2.73 9.53 2.73 8.37L2.73 8.37L2.73 2.42ZM15.73 9.93L11.49 9.93L11.49 8.57L15.73 8.57L15.73 9.93ZM19.98 12.67L17.93 12.67L17.93 2.42L25.14 2.42L25.14 4.33L19.98 4.33L19.98 6.52L23.79 6.52L23.79 8.43L19.98 8.43L19.98 12.67ZM26.63 12.67L26.63 2.41L28.68 2.41L28.68 12.67L26.63 12.67ZM39.10 2.42L30.21 2.42L30.21 4.33L33.63 4.33L33.63 12.67L35.68 12.67L35.68 4.33L39.10 4.33L39.10 2.42Z"></path></g><!----><g data-v-423bf9ae="" id="b586fe28-2981-419e-af8e-d4b02d6fb8c4" transform="matrix(2.8125,0,0,2.8125,0,0)" stroke="none" fill="white"><path d="M32 0H0v32h32V0zm-2.812 19.938H23.53C22.109 22.648 19.272 24.5 16 24.5s-6.109-1.852-7.529-4.562H2.812v-7.875H8.47C9.891 9.352 12.728 7.5 16 7.5s6.109 1.852 7.529 4.562h5.658v7.876z"></path></g><!----><g data-v-423bf9ae="" id="4932dcca-9bf2-478b-9567-a5d6ce10dea2" fill="white" transform="matrix(0.6050922955826984,0,0,0.6050922955826984,109.04395527591215,57.083454434313296)"><path d="M7.28 9.34L7.28 9.34L7.28 9.34Q7.73 9.34 7.99 9.59L7.99 9.59L7.99 9.59Q8.25 9.84 8.25 10.29L8.25 10.29L8.25 10.29Q8.25 10.40 8.23 10.52L8.23 10.52L8.23 10.52Q8.22 10.64 8.18 10.72L8.18 10.72L8.18 10.72Q7.99 10.70 7.77 10.68L7.77 10.68L7.77 10.68Q7.55 10.65 7.24 10.65L7.24 10.65L7.24 10.65Q6.61 10.65 5.98 10.77L5.98 10.77L5.98 10.77Q5.35 10.88 4.77 10.95L4.77 10.95L4.77 10.95Q4.14 12.43 3.74 13.73L3.74 13.73L3.74 13.73Q3.33 15.04 3.11 16.31L3.11 16.31L3.11 16.31Q2.63 16.20 2.27 15.90L2.27 15.90L2.27 15.90Q1.90 15.61 1.58 15.08L1.58 15.08L1.58 15.08Q1.68 14.85 1.82 14.54L1.82 14.54L1.82 14.54Q1.96 14.22 2.16 13.74L2.16 13.74L2.16 13.74Q2.35 13.26 2.63 12.56L2.63 12.56L2.63 12.56Q2.90 11.87 3.28 10.91L3.28 10.91L3.28 10.91Q2.69 10.71 2.51 10.22L2.51 10.22L2.51 10.22Q2.58 10.15 2.90 10.06L2.90 10.06L2.90 10.06Q3.22 9.97 3.68 9.86L3.68 9.86L3.68 9.86Q3.89 9.31 4.05 8.88L4.05 8.88L4.05 8.88Q4.20 8.46 4.33 8.07L4.33 8.07L4.33 8.07Q4.45 7.69 4.56 7.32L4.56 7.32L4.56 7.32Q4.66 6.94 4.75 6.52L4.75 6.52L4.68 6.52L4.68 6.52Q4.14 6.52 3.81 6.27L3.81 6.27L3.81 6.27Q3.49 6.02 3.49 5.61L3.49 5.61L3.49 5.61Q3.49 5.50 3.52 5.35L3.52 5.35L3.52 5.35Q3.56 5.19 3.61 5.08L3.61 5.08L3.61 5.08Q3.88 5.12 4.14 5.14L4.14 5.14L4.14 5.14Q4.40 5.15 4.82 5.15L4.82 5.15L4.82 5.15Q5.70 5.15 6.47 5.10L6.47 5.10L6.47 5.10Q7.24 5.05 7.86 5.00L7.86 5.00L7.86 5.00Q8.48 4.94 8.93 4.89L8.93 4.89L8.93 4.89Q9.38 4.84 9.62 4.84L9.62 4.84L9.62 4.84Q9.94 4.84 10.19 5.18L10.19 5.18L10.19 5.18Q10.44 5.52 10.58 6.13L10.58 6.13L10.58 6.13Q10.14 6.09 9.86 6.08L9.86 6.08L9.86 6.08Q9.59 6.06 9.38 6.06L9.38 6.06L9.38 6.06Q8.67 6.06 8.07 6.13L8.07 6.13L8.07 6.13Q7.48 6.19 6.94 6.27L6.94 6.27L6.94 6.27Q6.86 6.40 6.75 6.59L6.75 6.59L6.75 6.59Q6.65 6.79 6.48 7.15L6.48 7.15L6.48 7.15Q6.31 7.50 6.05 8.08L6.05 8.08L6.05 8.08Q5.80 8.65 5.40 9.53L5.40 9.53L5.40 9.53Q5.95 9.45 6.45 9.39L6.45 9.39L6.45 9.39Q6.94 9.34 7.28 9.34ZM16.55 14.38L16.55 14.38L16.55 14.38Q16.55 13.87 16.71 13.07L16.71 13.07L16.71 13.07Q16.87 12.26 17.13 11.33L17.13 11.33L17.13 11.33Q17.39 10.40 17.72 9.43L17.72 9.43L17.72 9.43Q18.06 8.46 18.41 7.60L18.41 7.60L18.41 7.60Q18.76 6.75 19.10 6.10L19.10 6.10L19.10 6.10Q19.43 5.46 19.70 5.18L19.70 5.18L19.70 5.18Q19.84 5.19 20.07 5.29L20.07 5.29L20.07 5.29Q20.30 5.38 20.54 5.50L20.54 5.50L20.54 5.50Q20.78 5.63 20.97 5.78L20.97 5.78L20.97 5.78Q21.17 5.92 21.22 6.05L21.22 6.05L21.22 6.05Q20.82 6.41 20.42 7.15L20.42 7.15L20.42 7.15Q20.02 7.88 19.65 8.82L19.65 8.82L19.65 8.82Q19.28 9.76 18.96 10.80L18.96 10.80L18.96 10.80Q18.63 11.84 18.40 12.82L18.40 12.82L18.40 12.82Q18.16 13.80 18.02 14.64L18.02 14.64L18.02 14.64Q17.89 15.48 17.89 16.00L17.89 16.00L17.89 16.00Q17.89 16.24 17.93 16.30L17.93 16.30L17.93 16.30Q17.63 16.28 17.49 16.19L17.49 16.19L17.49 16.19Q17.35 16.10 17.27 16.00L17.27 16.00L17.27 16.00Q17.19 15.89 17.13 15.79L17.13 15.79L17.13 15.79Q17.07 15.68 16.94 15.62L16.94 15.62L16.94 15.62Q16.84 15.58 16.77 15.43L16.77 15.43L16.77 15.43Q16.70 15.27 16.65 15.09L16.65 15.09L16.65 15.09Q16.60 14.90 16.58 14.70L16.58 14.70L16.58 14.70Q16.55 14.50 16.55 14.38ZM30.31 6.69L30.31 6.69L30.31 6.69Q29.75 6.69 29.45 6.38L29.45 6.38L29.45 6.38Q29.15 6.06 29.15 5.61L29.15 5.61L29.15 5.61Q29.15 5.50 29.18 5.35L29.18 5.35L29.18 5.35Q29.22 5.19 29.27 5.08L29.27 5.08L29.27 5.08Q29.46 5.17 29.81 5.20L29.81 5.20L29.81 5.20Q30.17 5.24 30.65 5.24L30.65 5.24L30.65 5.24Q31.36 5.24 32.26 5.17L32.26 5.17L32.26 5.17Q33.17 5.11 33.99 5.04L33.99 5.04L33.99 5.04Q34.82 4.97 35.45 4.91L35.45 4.91L35.45 4.91Q36.08 4.84 36.26 4.84L36.26 4.84L36.26 4.84Q36.78 4.84 37.01 5.23L37.01 5.23L37.01 5.23Q37.24 5.61 37.35 6.26L37.35 6.26L37.35 6.26Q36.99 6.23 36.63 6.21L36.63 6.21L36.63 6.21Q36.27 6.19 36.02 6.19L36.02 6.19L36.02 6.19Q35.57 6.19 35.12 6.22L35.12 6.22L35.12 6.22Q34.66 6.24 34.20 6.30L34.20 6.30L34.20 6.30Q34.01 6.71 33.77 7.26L33.77 7.26L33.77 7.26Q33.53 7.81 33.30 8.41L33.30 8.41L33.30 8.41Q33.07 9.02 32.86 9.61L32.86 9.61L32.86 9.61Q32.65 10.21 32.49 10.68L32.49 10.68L32.49 10.68Q32.19 11.61 31.96 12.39L31.96 12.39L31.96 12.39Q31.72 13.17 31.55 13.85L31.55 13.85L31.55 13.85Q31.37 14.53 31.25 15.15L31.25 15.15L31.25 15.15Q31.12 15.76 31.02 16.35L31.02 16.35L31.02 16.35Q30.09 16.21 29.46 15.18L29.46 15.18L29.46 15.18Q29.57 14.74 29.73 14.23L29.73 14.23L29.73 14.23Q29.89 13.72 30.11 13.07L30.11 13.07L30.11 13.07Q30.32 12.42 30.62 11.59L30.62 11.59L30.62 11.59Q30.91 10.77 31.29 9.72L31.29 9.72L31.29 9.72Q31.43 9.32 31.58 8.90L31.58 8.90L31.58 8.90Q31.74 8.47 31.89 8.05L31.89 8.05L31.89 8.05Q32.03 7.63 32.15 7.24L32.15 7.24L32.15 7.24Q32.27 6.85 32.35 6.52L32.35 6.52L32.35 6.52Q31.77 6.59 31.24 6.64L31.24 6.64L31.24 6.64Q30.72 6.69 30.31 6.69ZM44.02 16.24L44.02 16.24L44.02 16.24Q43.22 16.00 42.94 15.79L42.94 15.79L42.94 15.79Q42.66 15.57 42.66 15.19L42.66 15.19L42.66 15.19Q42.66 14.77 42.85 14.01L42.85 14.01L42.85 14.01Q43.05 13.24 43.37 12.31L43.37 12.31L43.37 12.31Q43.68 11.37 44.09 10.35L44.09 10.35L44.09 10.35Q44.49 9.32 44.91 8.39L44.91 8.39L44.91 8.39Q45.33 7.45 45.73 6.67L45.73 6.67L45.73 6.67Q46.13 5.89 46.44 5.46L46.44 5.46L46.34 4.87L46.34 4.87Q46.54 4.87 46.89 4.97L46.89 4.97L46.89 4.97Q47.24 5.07 47.59 5.21L47.59 5.21L47.59 5.21Q47.95 5.35 48.22 5.49L48.22 5.49L48.22 5.49Q48.50 5.64 48.52 5.74L48.52 5.74L48.52 5.74Q48.45 6.08 48.41 6.76L48.41 6.76L48.41 6.76Q48.37 7.43 48.37 8.20L48.37 8.20L48.37 8.20Q48.37 9.73 48.49 11.19L48.49 11.19L48.49 11.19Q48.61 12.66 49.04 14.17L49.04 14.17L49.04 14.17Q49.27 13.05 49.53 11.94L49.53 11.94L49.53 11.94Q49.78 10.82 50.06 9.81L50.06 9.81L50.06 9.81Q50.34 8.79 50.62 7.92L50.62 7.92L50.62 7.92Q50.90 7.06 51.16 6.40L51.16 6.40L51.16 6.40Q51.42 5.75 51.65 5.38L51.65 5.38L51.65 5.38Q51.87 5.01 52.05 4.98L52.05 4.98L52.05 4.98Q52.21 5.01 52.39 5.10L52.39 5.10L52.39 5.10Q52.57 5.19 52.74 5.32L52.74 5.32L52.74 5.32Q52.91 5.45 53.05 5.60L53.05 5.60L53.05 5.60Q53.19 5.75 53.27 5.91L53.27 5.91L53.27 5.91Q52.82 6.09 52.38 6.76L52.38 6.76L52.38 6.76Q51.94 7.43 51.54 8.39L51.54 8.39L51.54 8.39Q51.14 9.35 50.80 10.47L50.80 10.47L50.80 10.47Q50.46 11.59 50.20 12.68L50.20 12.68L50.20 12.68Q49.94 13.76 49.79 14.69L49.79 14.69L49.79 14.69Q49.64 15.61 49.63 16.17L49.63 16.17L49.63 16.17Q49.63 16.20 49.64 16.21L49.64 16.21L49.64 16.21Q49.60 16.23 49.55 16.23L49.55 16.23L49.55 16.23Q49.50 16.23 49.46 16.23L49.46 16.23L49.46 16.23Q48.82 16.23 48.32 16.07L48.32 16.07L48.32 16.07Q47.82 15.90 47.67 15.61L47.67 15.61L47.67 15.61Q47.38 14.43 47.18 13.34L47.18 13.34L47.18 13.34Q46.98 12.25 46.85 11.16L46.85 11.16L46.85 11.16Q46.72 10.07 46.64 8.95L46.64 8.95L46.64 8.95Q46.56 7.84 46.52 6.62L46.52 6.62L46.52 6.62Q46.26 7.04 45.96 7.72L45.96 7.72L45.96 7.72Q45.67 8.40 45.39 9.21L45.39 9.21L45.39 9.21Q45.11 10.02 44.85 10.92L44.85 10.92L44.85 10.92Q44.59 11.82 44.39 12.67L44.39 12.67L44.39 12.67Q44.20 13.52 44.09 14.29L44.09 14.29L44.09 14.29Q43.97 15.05 43.97 15.61L43.97 15.61L43.97 15.61Q43.97 15.90 43.98 16.03L43.98 16.03L43.98 16.03Q43.99 16.16 44.02 16.24ZM65.11 9.21L65.11 9.21L65.11 9.21Q65.58 9.21 65.83 9.46L65.83 9.46L65.83 9.46Q66.09 9.72 66.09 10.16L66.09 10.16L66.09 10.16Q66.09 10.28 66.07 10.39L66.07 10.39L66.07 10.39Q66.05 10.51 66.02 10.60L66.02 10.60L66.02 10.60Q65.84 10.57 65.62 10.55L65.62 10.55L65.62 10.55Q65.39 10.53 65.09 10.53L65.09 10.53L65.09 10.53Q64.48 10.53 63.87 10.63L63.87 10.63L63.87 10.63Q63.25 10.74 62.69 10.81L62.69 10.81L62.69 10.81Q62.37 11.55 62.10 12.24L62.10 12.24L62.10 12.24Q61.84 12.94 61.65 13.51L61.65 13.51L61.65 13.51Q61.46 14.08 61.35 14.50L61.35 14.50L61.35 14.50Q61.25 14.92 61.24 15.13L61.24 15.13L61.24 15.13Q62.37 14.90 63.52 14.73L63.52 14.73L63.52 14.73Q64.68 14.56 65.95 14.48L65.95 14.48L65.95 14.48Q66.11 14.71 66.21 14.99L66.21 14.99L66.21 14.99Q66.32 15.27 66.32 15.60L66.32 15.60L66.32 15.60Q66.32 15.68 66.32 15.78L66.32 15.78L66.32 15.78Q66.32 15.88 66.29 15.97L66.29 15.97L66.29 15.97Q65.90 15.96 65.46 15.95L65.46 15.95L65.46 15.95Q65.03 15.95 64.33 15.95L64.33 15.95L64.33 15.95Q63.87 15.95 63.45 15.97L63.45 15.97L63.45 15.97Q63.04 15.99 62.62 16.03L62.62 16.03L62.62 16.03Q62.20 16.07 61.73 16.14L61.73 16.14L61.73 16.14Q61.26 16.21 60.68 16.31L60.68 16.31L60.68 16.31Q60.03 16.06 59.43 15.08L59.43 15.08L59.43 15.08Q59.67 14.57 60.09 13.54L60.09 13.54L60.09 13.54Q60.52 12.52 61.18 10.79L61.18 10.79L61.18 10.79Q60.55 10.60 60.35 10.09L60.35 10.09L60.35 10.09Q60.42 10.02 60.76 9.92L60.76 9.92L60.76 9.92Q61.10 9.81 61.59 9.70L61.59 9.70L61.59 9.70Q61.80 9.16 61.94 8.75L61.94 8.75L61.94 8.75Q62.09 8.34 62.20 7.99L62.20 7.99L62.20 7.99Q62.31 7.63 62.41 7.29L62.41 7.29L62.41 7.29Q62.50 6.94 62.58 6.54L62.58 6.54L62.58 6.54Q62.09 6.51 61.81 6.27L61.81 6.27L61.81 6.27Q61.53 6.02 61.53 5.63L61.53 5.63L61.53 5.63Q61.53 5.52 61.56 5.36L61.56 5.36L61.56 5.36Q61.60 5.21 61.64 5.10L61.64 5.10L61.64 5.10Q61.92 5.14 62.18 5.15L62.18 5.15L62.18 5.15Q62.44 5.17 62.86 5.17L62.86 5.17L62.86 5.17Q63.74 5.17 64.51 5.12L64.51 5.12L64.51 5.12Q65.28 5.07 65.91 5.01L65.91 5.01L65.91 5.01Q66.53 4.96 66.98 4.91L66.98 4.91L66.98 4.91Q67.42 4.86 67.66 4.86L67.66 4.86L67.66 4.86Q67.98 4.86 68.24 5.19L68.24 5.19L68.24 5.19Q68.49 5.53 68.61 6.15L68.61 6.15L68.61 6.15Q68.18 6.10 67.91 6.09L67.91 6.09L67.91 6.09Q67.63 6.08 67.42 6.08L67.42 6.08L67.42 6.08Q66.65 6.08 66.02 6.15L66.02 6.15L66.02 6.15Q65.38 6.23 64.79 6.31L64.79 6.31L64.79 6.31Q64.71 6.44 64.60 6.64L64.60 6.64L64.60 6.64Q64.50 6.83 64.33 7.18L64.33 7.18L64.33 7.18Q64.16 7.53 63.92 8.06L63.92 8.06L63.92 8.06Q63.67 8.60 63.32 9.39L63.32 9.39L63.32 9.39Q63.85 9.31 64.32 9.26L64.32 9.26L64.32 9.26Q64.79 9.21 65.11 9.21ZM83.99 5.74L83.99 5.74L83.99 5.74Q84.03 5.98 84.05 6.07L84.05 6.07L84.05 6.07Q84.07 6.16 84.07 6.31L84.07 6.31L84.07 6.31Q84.07 6.78 83.87 7.18L83.87 7.18L83.87 7.18Q83.66 7.57 83.31 7.74L83.31 7.74L83.31 7.74Q83.03 7.36 82.63 7.09L82.63 7.09L82.63 7.09Q82.22 6.82 81.74 6.64L81.74 6.64L81.74 6.64Q81.26 6.47 80.74 6.38L80.74 6.38L80.74 6.38Q80.22 6.30 79.73 6.30L79.73 6.30L79.73 6.30Q79.24 6.30 78.81 6.38L78.81 6.38L78.81 6.38Q78.39 6.45 78.06 6.59L78.06 6.59L78.06 6.59Q77.73 6.72 77.54 6.92L77.54 6.92L77.54 6.92Q77.35 7.11 77.35 7.36L77.35 7.36L77.35 7.36Q77.39 7.67 77.73 7.99L77.73 7.99L77.73 7.99Q78.06 8.30 78.55 8.60L78.55 8.60L78.55 8.60Q79.04 8.90 79.64 9.20L79.64 9.20L79.64 9.20Q80.23 9.49 80.81 9.76L80.81 9.76L80.81 9.76Q81.52 10.09 82.04 10.38L82.04 10.38L82.04 10.38Q82.56 10.67 82.89 11.01L82.89 11.01L82.89 11.01Q83.23 11.35 83.40 11.79L83.40 11.79L83.40 11.79Q83.57 12.22 83.57 12.84L83.57 12.84L83.57 12.84Q83.57 13.55 83.33 14.18L83.33 14.18L83.33 14.18Q83.09 14.80 82.64 15.26L82.64 15.26L82.64 15.26Q82.18 15.72 81.54 15.98L81.54 15.98L81.54 15.98Q80.89 16.24 80.09 16.24L80.09 16.24L80.09 16.24Q79.31 16.24 78.40 16.00L78.40 16.00L78.40 16.00Q77.49 15.76 76.70 15.35L76.70 15.35L76.70 15.35Q75.91 14.94 75.38 14.40L75.38 14.40L75.38 14.40Q74.86 13.86 74.86 13.26L74.86 13.26L74.86 13.26Q74.86 12.98 75.02 12.54L75.02 12.54L75.02 12.54Q75.18 12.11 75.60 11.63L75.60 11.63L75.60 11.63Q75.64 12.05 76.06 12.63L76.06 12.63L76.06 12.63Q76.47 13.20 77.29 13.69L77.29 13.69L77.29 13.69Q78.06 14.14 78.88 14.34L78.88 14.34L78.88 14.34Q79.70 14.55 80.42 14.55L80.42 14.55L80.42 14.55Q81.20 14.55 81.69 14.35L81.69 14.35L81.69 14.35Q82.18 14.15 82.46 13.88L82.46 13.88L82.46 13.88Q82.74 13.61 82.85 13.33L82.85 13.33L82.85 13.33Q82.96 13.05 82.98 12.88L82.98 12.88L82.98 12.88Q82.96 12.60 82.72 12.34L82.72 12.34L82.72 12.34Q82.47 12.08 82.06 11.84L82.06 11.84L82.06 11.84Q81.65 11.59 81.10 11.34L81.10 11.34L81.10 11.34Q80.56 11.09 79.97 10.84L79.97 10.84L79.97 10.84Q79.09 10.44 78.45 10.10L78.45 10.10L78.45 10.10Q77.81 9.76 77.40 9.40L77.40 9.40L77.40 9.40Q76.99 9.04 76.80 8.65L76.80 8.65L76.80 8.65Q76.61 8.26 76.61 7.76L76.61 7.76L76.61 7.76Q76.61 6.97 77.08 6.27L77.08 6.27L77.08 6.27Q77.56 5.57 78.46 5.21L78.46 5.21L78.46 5.21Q78.90 5.01 79.42 4.93L79.42 4.93L79.42 4.93Q79.93 4.84 80.42 4.84L80.42 4.84L80.42 4.84Q81.34 4.84 82.22 5.10L82.22 5.10L82.22 5.10Q83.10 5.35 83.99 5.74ZM100.81 5.74L100.81 5.74L100.81 5.74Q100.86 5.98 100.88 6.07L100.88 6.07L100.88 6.07Q100.90 6.16 100.90 6.31L100.90 6.31L100.90 6.31Q100.90 6.78 100.70 7.18L100.70 7.18L100.70 7.18Q100.49 7.57 100.14 7.74L100.14 7.74L100.14 7.74Q99.86 7.36 99.46 7.09L99.46 7.09L99.46 7.09Q99.05 6.82 98.57 6.64L98.57 6.64L98.57 6.64Q98.08 6.47 97.57 6.38L97.57 6.38L97.57 6.38Q97.05 6.30 96.56 6.30L96.56 6.30L96.56 6.30Q96.07 6.30 95.64 6.38L95.64 6.38L95.64 6.38Q95.21 6.45 94.89 6.59L94.89 6.59L94.89 6.59Q94.56 6.72 94.37 6.92L94.37 6.92L94.37 6.92Q94.18 7.11 94.18 7.36L94.18 7.36L94.18 7.36Q94.22 7.67 94.56 7.99L94.56 7.99L94.56 7.99Q94.89 8.30 95.38 8.60L95.38 8.60L95.38 8.60Q95.87 8.90 96.47 9.20L96.47 9.20L96.47 9.20Q97.06 9.49 97.64 9.76L97.64 9.76L97.64 9.76Q98.35 10.09 98.87 10.38L98.87 10.38L98.87 10.38Q99.39 10.67 99.72 11.01L99.72 11.01L99.72 11.01Q100.06 11.35 100.23 11.79L100.23 11.79L100.23 11.79Q100.39 12.22 100.39 12.84L100.39 12.84L100.39 12.84Q100.39 13.55 100.16 14.18L100.16 14.18L100.16 14.18Q99.92 14.80 99.46 15.26L99.46 15.26L99.46 15.26Q99.01 15.72 98.36 15.98L98.36 15.98L98.36 15.98Q97.72 16.24 96.92 16.24L96.92 16.24L96.92 16.24Q96.14 16.24 95.23 16.00L95.23 16.00L95.23 16.00Q94.32 15.76 93.53 15.35L93.53 15.35L93.53 15.35Q92.74 14.94 92.21 14.40L92.21 14.40L92.21 14.40Q91.69 13.86 91.69 13.26L91.69 13.26L91.69 13.26Q91.69 12.98 91.85 12.54L91.85 12.54L91.85 12.54Q92.01 12.11 92.43 11.63L92.43 11.63L92.43 11.63Q92.47 12.05 92.88 12.63L92.88 12.63L92.88 12.63Q93.30 13.20 94.12 13.69L94.12 13.69L94.12 13.69Q94.89 14.14 95.71 14.34L95.71 14.34L95.71 14.34Q96.53 14.55 97.24 14.55L97.24 14.55L97.24 14.55Q98.03 14.55 98.52 14.35L98.52 14.35L98.52 14.35Q99.01 14.15 99.29 13.88L99.29 13.88L99.29 13.88Q99.57 13.61 99.68 13.33L99.68 13.33L99.68 13.33Q99.79 13.05 99.81 12.88L99.81 12.88L99.81 12.88Q99.79 12.60 99.55 12.34L99.55 12.34L99.55 12.34Q99.30 12.08 98.89 11.84L98.89 11.84L98.89 11.84Q98.48 11.59 97.93 11.34L97.93 11.34L97.93 11.34Q97.38 11.09 96.80 10.84L96.80 10.84L96.80 10.84Q95.91 10.44 95.28 10.10L95.28 10.10L95.28 10.10Q94.64 9.76 94.23 9.40L94.23 9.40L94.23 9.40Q93.81 9.04 93.63 8.65L93.63 8.65L93.63 8.65Q93.44 8.26 93.44 7.76L93.44 7.76L93.44 7.76Q93.44 6.97 93.91 6.27L93.91 6.27L93.91 6.27Q94.39 5.57 95.28 5.21L95.28 5.21L95.28 5.21Q95.73 5.01 96.24 4.93L96.24 4.93L96.24 4.93Q96.75 4.84 97.24 4.84L97.24 4.84L97.24 4.84Q98.17 4.84 99.05 5.10L99.05 5.10L99.05 5.10Q99.93 5.35 100.81 5.74ZM124.71 9.34L124.71 9.34L124.71 9.34Q125.16 9.34 125.42 9.59L125.42 9.59L125.42 9.59Q125.68 9.84 125.68 10.29L125.68 10.29L125.68 10.29Q125.68 10.40 125.66 10.52L125.66 10.52L125.66 10.52Q125.65 10.64 125.61 10.72L125.61 10.72L125.61 10.72Q125.43 10.70 125.20 10.68L125.20 10.68L125.20 10.68Q124.98 10.65 124.67 10.65L124.67 10.65L124.67 10.65Q124.04 10.65 123.41 10.77L123.41 10.77L123.41 10.77Q122.78 10.88 122.21 10.95L122.21 10.95L122.21 10.95Q121.58 12.43 121.17 13.73L121.17 13.73L121.17 13.73Q120.76 15.04 120.54 16.31L120.54 16.31L120.54 16.31Q120.06 16.20 119.70 15.90L119.70 15.90L119.70 15.90Q119.34 15.61 119.01 15.08L119.01 15.08L119.01 15.08Q119.11 14.85 119.25 14.54L119.25 14.54L119.25 14.54Q119.39 14.22 119.59 13.74L119.59 13.74L119.59 13.74Q119.78 13.26 120.06 12.56L120.06 12.56L120.06 12.56Q120.33 11.87 120.71 10.91L120.71 10.91L120.71 10.91Q120.12 10.71 119.94 10.22L119.94 10.22L119.94 10.22Q120.01 10.15 120.33 10.06L120.33 10.06L120.33 10.06Q120.65 9.97 121.11 9.86L121.11 9.86L121.11 9.86Q121.32 9.31 121.48 8.88L121.48 8.88L121.48 8.88Q121.63 8.46 121.76 8.07L121.76 8.07L121.76 8.07Q121.88 7.69 121.99 7.32L121.99 7.32L121.99 7.32Q122.09 6.94 122.18 6.52L122.18 6.52L122.11 6.52L122.11 6.52Q121.58 6.52 121.25 6.27L121.25 6.27L121.25 6.27Q120.92 6.02 120.92 5.61L120.92 5.61L120.92 5.61Q120.92 5.50 120.95 5.35L120.95 5.35L120.95 5.35Q120.99 5.19 121.04 5.08L121.04 5.08L121.04 5.08Q121.31 5.12 121.57 5.14L121.57 5.14L121.57 5.14Q121.83 5.15 122.25 5.15L122.25 5.15L122.25 5.15Q123.13 5.15 123.90 5.10L123.90 5.10L123.90 5.10Q124.67 5.05 125.29 5.00L125.29 5.00L125.29 5.00Q125.92 4.94 126.36 4.89L126.36 4.89L126.36 4.89Q126.81 4.84 127.05 4.84L127.05 4.84L127.05 4.84Q127.37 4.84 127.62 5.18L127.62 5.18L127.62 5.18Q127.88 5.52 128.02 6.13L128.02 6.13L128.02 6.13Q127.57 6.09 127.30 6.08L127.30 6.08L127.30 6.08Q127.02 6.06 126.81 6.06L126.81 6.06L126.81 6.06Q126.10 6.06 125.50 6.13L125.50 6.13L125.50 6.13Q124.91 6.19 124.38 6.27L124.38 6.27L124.38 6.27Q124.29 6.40 124.19 6.59L124.19 6.59L124.19 6.59Q124.08 6.79 123.91 7.15L123.91 7.15L123.91 7.15Q123.75 7.50 123.49 8.08L123.49 8.08L123.49 8.08Q123.23 8.65 122.84 9.53L122.84 9.53L122.84 9.53Q123.38 9.45 123.88 9.39L123.88 9.39L123.88 9.39Q124.38 9.34 124.71 9.34ZM140.01 4.98L140.01 4.98L140.01 4.98Q140.28 5.10 140.56 5.27L140.56 5.27L140.56 5.27Q140.84 5.45 141.08 5.63L141.08 5.63L141.08 5.63Q141.32 5.81 141.48 5.98L141.48 5.98L141.48 5.98Q141.64 6.16 141.65 6.27L141.65 6.27L141.65 6.27Q141.41 6.22 141.18 6.20L141.18 6.20L141.18 6.20Q140.94 6.17 140.74 6.17L140.74 6.17L140.74 6.17Q140.11 6.17 139.49 6.48L139.49 6.48L139.49 6.48Q138.87 6.79 138.31 7.32L138.31 7.32L138.31 7.32Q137.75 7.85 137.27 8.57L137.27 8.57L137.27 8.57Q136.79 9.28 136.45 10.09L136.45 10.09L136.45 10.09Q136.11 10.91 135.91 11.77L135.91 11.77L135.91 11.77Q135.72 12.64 135.72 13.48L135.72 13.48L135.72 13.48Q135.72 14.57 136.08 15.11L136.08 15.11L136.08 15.11Q136.44 15.64 137.14 15.64L137.14 15.64L137.14 15.64Q137.48 15.64 137.87 15.51L137.87 15.51L137.87 15.51Q138.26 15.37 138.67 15.13L138.67 15.13L138.67 15.13Q139.08 14.90 139.47 14.56L139.47 14.56L139.47 14.56Q139.86 14.22 140.20 13.82L140.20 13.82L140.20 13.82Q140.69 13.23 141.08 12.48L141.08 12.48L141.08 12.48Q141.47 11.73 141.74 10.89L141.74 10.89L141.74 10.89Q142.02 10.05 142.16 9.16L142.16 9.16L142.16 9.16Q142.31 8.27 142.31 7.42L142.31 7.42L142.31 7.42Q142.31 7.08 142.30 6.85L142.30 6.85L142.30 6.85Q142.28 6.62 142.26 6.46L142.26 6.46L142.26 6.46Q142.24 6.30 142.23 6.20L142.23 6.20L142.23 6.20Q142.21 6.10 142.20 6.03L142.20 6.03L142.20 6.03Q142.37 6.12 142.57 6.24L142.57 6.24L142.57 6.24Q142.77 6.36 142.95 6.59L142.95 6.59L142.95 6.59Q143.12 6.82 143.24 7.20L143.24 7.20L143.24 7.20Q143.36 7.57 143.36 8.18L143.36 8.18L143.36 8.18Q143.36 9.16 143.13 10.10L143.13 10.10L143.13 10.10Q142.90 11.05 142.49 11.90L142.49 11.90L142.49 11.90Q142.07 12.75 141.51 13.50L141.51 13.50L141.51 13.50Q140.95 14.24 140.31 14.80L140.31 14.80L140.31 14.80Q139.47 15.54 138.52 15.95L138.52 15.95L138.52 15.95Q137.56 16.35 136.68 16.35L136.68 16.35L136.68 16.35Q135.39 16.35 134.72 15.53L134.72 15.53L134.72 15.53Q134.04 14.71 134.04 13.12L134.04 13.12L134.04 13.12Q134.04 12.26 134.23 11.31L134.23 11.31L134.23 11.31Q134.41 10.36 134.76 9.44L134.76 9.44L134.76 9.44Q135.10 8.51 135.58 7.68L135.58 7.68L135.58 7.68Q136.05 6.85 136.62 6.21L136.62 6.21L136.62 6.21Q137.19 5.57 137.84 5.19L137.84 5.19L137.84 5.19Q138.49 4.82 139.17 4.82L139.17 4.82L139.17 4.82Q139.40 4.82 139.59 4.85L139.59 4.85L139.59 4.85Q139.79 4.89 140.01 4.98ZM160.20 7.46L160.20 7.46L160.20 7.46Q160.20 8.13 159.90 8.73L159.90 8.73L159.90 8.73Q159.60 9.32 159.07 9.79L159.07 9.79L159.07 9.79Q158.54 10.26 157.82 10.58L157.82 10.58L157.82 10.58Q157.11 10.91 156.27 11.02L156.27 11.02L156.27 11.02Q156.48 11.65 156.78 12.31L156.78 12.31L156.78 12.31Q157.08 12.98 157.43 13.59L157.43 13.59L157.43 13.59Q157.78 14.21 158.16 14.73L158.16 14.73L158.16 14.73Q158.54 15.25 158.90 15.58L158.90 15.58L158.90 15.58Q158.83 15.72 158.70 15.86L158.70 15.86L158.70 15.86Q158.56 16.00 158.39 16.12L158.39 16.12L158.39 16.12Q158.21 16.24 158.03 16.32L158.03 16.32L158.03 16.32Q157.84 16.39 157.67 16.39L157.67 16.39L157.67 16.39Q157.36 16.39 157.08 16.10L157.08 16.10L157.08 16.10Q156.80 15.81 156.51 15.17L156.51 15.17L156.51 15.17Q156.23 14.53 155.91 13.52L155.91 13.52L155.91 13.52Q155.60 12.50 155.22 11.07L155.22 11.07L155.22 11.07Q155.06 11.07 154.91 11.07L154.91 11.07L154.91 11.07Q154.76 11.07 154.67 11.05L154.67 11.05L154.67 11.05Q154.57 10.99 154.46 10.85L154.46 10.85L154.46 10.85Q154.08 11.66 153.79 12.38L153.79 12.38L153.79 12.38Q153.50 13.09 153.27 13.76L153.27 13.76L153.27 13.76Q153.03 14.42 152.86 15.04L152.86 15.04L152.86 15.04Q152.68 15.67 152.56 16.31L152.56 16.31L152.56 16.31Q152.08 16.20 151.73 15.90L151.73 15.90L151.73 15.90Q151.38 15.61 151.07 15.08L151.07 15.08L151.07 15.08Q151.13 14.95 151.19 14.83L151.19 14.83L151.19 14.83Q151.26 14.71 151.35 14.50L151.35 14.50L151.35 14.50Q151.45 14.28 151.60 13.94L151.60 13.94L151.60 13.94Q151.75 13.61 151.99 13.05L151.99 13.05L151.99 13.05Q152.24 12.49 152.58 11.68L152.58 11.68L152.58 11.68Q152.92 10.86 153.41 9.70L153.41 9.70L153.41 9.70Q153.64 9.18 153.80 8.79L153.80 8.79L153.80 8.79Q153.96 8.40 154.08 8.04L154.08 8.04L154.08 8.04Q154.21 7.69 154.32 7.33L154.32 7.33L154.32 7.33Q154.42 6.97 154.53 6.51L154.53 6.51L154.53 6.51Q153.89 6.73 153.34 7.01L153.34 7.01L153.34 7.01Q152.78 7.28 152.42 7.59L152.42 7.59L152.42 7.59Q152.29 7.50 152.16 7.34L152.16 7.34L152.16 7.34Q152.03 7.17 151.91 6.96L151.91 6.96L151.91 6.96Q151.80 6.76 151.72 6.55L151.72 6.55L151.72 6.55Q151.63 6.34 151.62 6.17L151.62 6.17L151.62 6.17Q152.04 5.89 152.65 5.66L152.65 5.66L152.65 5.66Q153.26 5.42 153.94 5.24L153.94 5.24L153.94 5.24Q154.63 5.07 155.34 4.97L155.34 4.97L155.34 4.97Q156.06 4.87 156.67 4.87L156.67 4.87L156.67 4.87Q158.35 4.87 159.28 5.56L159.28 5.56L159.28 5.56Q160.20 6.26 160.20 7.46ZM156.62 6.02L156.79 6.29L156.79 6.29Q156.69 6.41 156.48 6.79L156.48 6.79L156.48 6.79Q156.27 7.17 156.00 7.69L156.00 7.69L156.00 7.69Q155.72 8.22 155.42 8.83L155.42 8.83L155.42 8.83Q155.12 9.45 154.84 10.05L154.84 10.05L154.84 10.05Q155.89 10.05 156.77 9.86L156.77 9.86L156.77 9.86Q157.65 9.66 158.30 9.30L158.30 9.30L158.30 9.30Q158.94 8.95 159.30 8.46L159.30 8.46L159.30 8.46Q159.66 7.98 159.66 7.39L159.66 7.39L159.66 7.39Q159.66 6.69 159.15 6.32L159.15 6.32L159.15 6.32Q158.65 5.95 157.60 5.95L157.60 5.95L157.60 5.95Q157.36 5.95 157.12 5.97L157.12 5.97L157.12 5.97Q156.88 5.99 156.62 6.02L156.62 6.02ZM183.47 9.21L183.47 9.21L183.47 9.21Q183.93 9.21 184.19 9.46L184.19 9.46L184.19 9.46Q184.45 9.72 184.45 10.16L184.45 10.16L184.45 10.16Q184.45 10.28 184.43 10.39L184.43 10.39L184.43 10.39Q184.41 10.51 184.38 10.60L184.38 10.60L184.38 10.60Q184.20 10.57 183.97 10.55L183.97 10.55L183.97 10.55Q183.75 10.53 183.44 10.53L183.44 10.53L183.44 10.53Q182.84 10.53 182.22 10.63L182.22 10.63L182.22 10.63Q181.61 10.74 181.05 10.81L181.05 10.81L181.05 10.81Q180.73 11.55 180.46 12.24L180.46 12.24L180.46 12.24Q180.19 12.94 180.01 13.51L180.01 13.51L180.01 13.51Q179.82 14.08 179.71 14.50L179.71 14.50L179.71 14.50Q179.61 14.92 179.59 15.13L179.59 15.13L179.59 15.13Q180.73 14.90 181.88 14.73L181.88 14.73L181.88 14.73Q183.04 14.56 184.31 14.48L184.31 14.48L184.31 14.48Q184.46 14.71 184.57 14.99L184.57 14.99L184.57 14.99Q184.67 15.27 184.67 15.60L184.67 15.60L184.67 15.60Q184.67 15.68 184.67 15.78L184.67 15.78L184.67 15.78Q184.67 15.88 184.65 15.97L184.65 15.97L184.65 15.97Q184.25 15.96 183.82 15.95L183.82 15.95L183.82 15.95Q183.39 15.95 182.69 15.95L182.69 15.95L182.69 15.95Q182.22 15.95 181.81 15.97L181.81 15.97L181.81 15.97Q181.40 15.99 180.98 16.03L180.98 16.03L180.98 16.03Q180.56 16.07 180.09 16.14L180.09 16.14L180.09 16.14Q179.62 16.21 179.03 16.31L179.03 16.31L179.03 16.31Q178.39 16.06 177.79 15.08L177.79 15.08L177.79 15.08Q178.02 14.57 178.45 13.54L178.45 13.54L178.45 13.54Q178.88 12.52 179.54 10.79L179.54 10.79L179.54 10.79Q178.91 10.60 178.71 10.09L178.71 10.09L178.71 10.09Q178.78 10.02 179.12 9.92L179.12 9.92L179.12 9.92Q179.45 9.81 179.94 9.70L179.94 9.70L179.94 9.70Q180.15 9.16 180.30 8.75L180.30 8.75L180.30 8.75Q180.45 8.34 180.56 7.99L180.56 7.99L180.56 7.99Q180.67 7.63 180.76 7.29L180.76 7.29L180.76 7.29Q180.85 6.94 180.94 6.54L180.94 6.54L180.94 6.54Q180.45 6.51 180.17 6.27L180.17 6.27L180.17 6.27Q179.89 6.02 179.89 5.63L179.89 5.63L179.89 5.63Q179.89 5.52 179.92 5.36L179.92 5.36L179.92 5.36Q179.96 5.21 180.00 5.10L180.00 5.10L180.00 5.10Q180.28 5.14 180.54 5.15L180.54 5.15L180.54 5.15Q180.80 5.17 181.22 5.17L181.22 5.17L181.22 5.17Q182.10 5.17 182.87 5.12L182.87 5.12L182.87 5.12Q183.64 5.07 184.26 5.01L184.26 5.01L184.26 5.01Q184.88 4.96 185.33 4.91L185.33 4.91L185.33 4.91Q185.78 4.86 186.02 4.86L186.02 4.86L186.02 4.86Q186.34 4.86 186.59 5.19L186.59 5.19L186.59 5.19Q186.84 5.53 186.97 6.15L186.97 6.15L186.97 6.15Q186.54 6.10 186.26 6.09L186.26 6.09L186.26 6.09Q185.99 6.08 185.78 6.08L185.78 6.08L185.78 6.08Q185.01 6.08 184.37 6.15L184.37 6.15L184.37 6.15Q183.74 6.23 183.15 6.31L183.15 6.31L183.15 6.31Q183.06 6.44 182.96 6.64L182.96 6.64L182.96 6.64Q182.85 6.83 182.69 7.18L182.69 7.18L182.69 7.18Q182.52 7.53 182.27 8.06L182.27 8.06L182.27 8.06Q182.03 8.60 181.68 9.39L181.68 9.39L181.68 9.39Q182.21 9.31 182.68 9.26L182.68 9.26L182.68 9.26Q183.15 9.21 183.47 9.21ZM197.67 16.07L197.67 16.07L197.67 16.07Q197.34 16.24 196.98 16.24L196.98 16.24L196.98 16.24Q196.53 16.18 196.12 16.02L196.12 16.02L196.12 16.02Q195.71 15.85 195.51 15.61L195.51 15.61L195.51 15.61Q195.40 14.92 195.33 14.35L195.33 14.35L195.33 14.35Q195.26 13.78 195.22 13.27L195.22 13.27L195.22 13.27Q195.17 12.75 195.16 12.29L195.16 12.29L195.16 12.29Q195.15 11.82 195.15 11.34L195.15 11.34L195.15 11.34Q195.15 10.71 195.16 10.01L195.16 10.01L195.16 10.01Q195.17 9.31 195.20 8.52L195.20 8.52L195.20 8.52Q195.22 7.73 195.23 6.82L195.23 6.82L195.23 6.82Q195.24 5.92 195.24 4.86L195.24 4.86L195.24 4.86Q195.43 4.86 195.79 4.96L195.79 4.96L195.79 4.96Q196.15 5.07 196.51 5.21L196.51 5.21L196.51 5.21Q196.87 5.35 197.15 5.49L197.15 5.49L197.15 5.49Q197.43 5.64 197.46 5.74L197.46 5.74L197.46 5.74Q197.32 6.13 197.21 6.76L197.21 6.76L197.21 6.76Q197.11 7.39 197.04 8.16L197.04 8.16L197.04 8.16Q196.98 8.93 196.95 9.79L196.95 9.79L196.95 9.79Q196.92 10.64 196.92 11.48L196.92 11.48L196.92 11.48Q196.92 12.11 196.94 12.61L196.94 12.61L196.94 12.61Q196.95 13.10 196.97 13.50L196.97 13.50L196.97 13.50Q196.99 13.90 197.04 14.25L197.04 14.25L197.04 14.25Q197.08 14.59 197.13 14.92L197.13 14.92L197.13 14.92Q197.53 13.73 198.00 12.54L198.00 12.54L198.00 12.54Q198.46 11.35 198.96 10.25L198.96 10.25L198.96 10.25Q199.46 9.16 199.95 8.20L199.95 8.20L199.95 8.20Q200.44 7.25 200.88 6.54L200.88 6.54L200.88 6.54Q201.32 5.84 201.67 5.43L201.67 5.43L201.67 5.43Q202.02 5.01 202.24 4.98L202.24 4.98L202.24 4.98Q202.40 5.01 202.57 5.10L202.57 5.10L202.57 5.10Q202.75 5.19 202.90 5.32L202.90 5.32L202.90 5.32Q203.06 5.45 203.18 5.60L203.18 5.60L203.18 5.60Q203.31 5.75 203.38 5.91L203.38 5.91L203.38 5.91Q202.86 6.09 202.27 6.76L202.27 6.76L202.27 6.76Q201.67 7.43 201.07 8.38L201.07 8.38L201.07 8.38Q200.47 9.32 199.90 10.44L199.90 10.44L199.90 10.44Q199.33 11.55 198.88 12.61L198.88 12.61L198.88 12.61Q198.42 13.68 198.10 14.60L198.10 14.60L198.10 14.60Q197.78 15.53 197.67 16.07ZM214.63 9.21L214.63 9.21L214.63 9.21Q215.10 9.21 215.36 9.46L215.36 9.46L215.36 9.46Q215.61 9.72 215.61 10.16L215.61 10.16L215.61 10.16Q215.61 10.28 215.59 10.39L215.59 10.39L215.59 10.39Q215.57 10.51 215.54 10.60L215.54 10.60L215.54 10.60Q215.36 10.57 215.14 10.55L215.14 10.55L215.14 10.55Q214.91 10.53 214.61 10.53L214.61 10.53L214.61 10.53Q214.00 10.53 213.39 10.63L213.39 10.63L213.39 10.63Q212.77 10.74 212.21 10.81L212.21 10.81L212.21 10.81Q211.89 11.55 211.62 12.24L211.62 12.24L211.62 12.24Q211.36 12.94 211.17 13.51L211.17 13.51L211.17 13.51Q210.98 14.08 210.88 14.50L210.88 14.50L210.88 14.50Q210.77 14.92 210.76 15.13L210.76 15.13L210.76 15.13Q211.89 14.90 213.05 14.73L213.05 14.73L213.05 14.73Q214.20 14.56 215.47 14.48L215.47 14.48L215.47 14.48Q215.63 14.71 215.73 14.99L215.73 14.99L215.73 14.99Q215.84 15.27 215.84 15.60L215.84 15.60L215.84 15.60Q215.84 15.68 215.84 15.78L215.84 15.78L215.84 15.78Q215.84 15.88 215.81 15.97L215.81 15.97L215.81 15.97Q215.42 15.96 214.98 15.95L214.98 15.95L214.98 15.95Q214.55 15.95 213.85 15.95L213.85 15.95L213.85 15.95Q213.39 15.95 212.98 15.97L212.98 15.97L212.98 15.97Q212.56 15.99 212.14 16.03L212.14 16.03L212.14 16.03Q211.72 16.07 211.25 16.14L211.25 16.14L211.25 16.14Q210.78 16.21 210.20 16.31L210.20 16.31L210.20 16.31Q209.55 16.06 208.95 15.08L208.95 15.08L208.95 15.08Q209.19 14.57 209.62 13.54L209.62 13.54L209.62 13.54Q210.04 12.52 210.70 10.79L210.70 10.79L210.70 10.79Q210.07 10.60 209.87 10.09L209.87 10.09L209.87 10.09Q209.94 10.02 210.28 9.92L210.28 9.92L210.28 9.92Q210.62 9.81 211.11 9.70L211.11 9.70L211.11 9.70Q211.32 9.16 211.46 8.75L211.46 8.75L211.46 8.75Q211.61 8.34 211.72 7.99L211.72 7.99L211.72 7.99Q211.83 7.63 211.93 7.29L211.93 7.29L211.93 7.29Q212.02 6.94 212.10 6.54L212.10 6.54L212.10 6.54Q211.61 6.51 211.33 6.27L211.33 6.27L211.33 6.27Q211.05 6.02 211.05 5.63L211.05 5.63L211.05 5.63Q211.05 5.52 211.09 5.36L211.09 5.36L211.09 5.36Q211.12 5.21 211.16 5.10L211.16 5.10L211.16 5.10Q211.44 5.14 211.70 5.15L211.70 5.15L211.70 5.15Q211.96 5.17 212.38 5.17L212.38 5.17L212.38 5.17Q213.26 5.17 214.03 5.12L214.03 5.12L214.03 5.12Q214.80 5.07 215.43 5.01L215.43 5.01L215.43 5.01Q216.05 4.96 216.50 4.91L216.50 4.91L216.50 4.91Q216.94 4.86 217.18 4.86L217.18 4.86L217.18 4.86Q217.50 4.86 217.76 5.19L217.76 5.19L217.76 5.19Q218.01 5.53 218.13 6.15L218.13 6.15L218.13 6.15Q217.70 6.10 217.43 6.09L217.43 6.09L217.43 6.09Q217.15 6.08 216.94 6.08L216.94 6.08L216.94 6.08Q216.17 6.08 215.54 6.15L215.54 6.15L215.54 6.15Q214.90 6.23 214.31 6.31L214.31 6.31L214.31 6.31Q214.23 6.44 214.12 6.64L214.12 6.64L214.12 6.64Q214.02 6.83 213.85 7.18L213.85 7.18L213.85 7.18Q213.68 7.53 213.44 8.06L213.44 8.06L213.44 8.06Q213.19 8.60 212.84 9.39L212.84 9.39L212.84 9.39Q213.37 9.31 213.84 9.26L213.84 9.26L213.84 9.26Q214.31 9.21 214.63 9.21ZM233.90 7.46L233.90 7.46L233.90 7.46Q233.90 8.13 233.60 8.73L233.60 8.73L233.60 8.73Q233.30 9.32 232.76 9.79L232.76 9.79L232.76 9.79Q232.23 10.26 231.52 10.58L231.52 10.58L231.52 10.58Q230.80 10.91 229.96 11.02L229.96 11.02L229.96 11.02Q230.17 11.65 230.48 12.31L230.48 12.31L230.48 12.31Q230.78 12.98 231.13 13.59L231.13 13.59L231.13 13.59Q231.48 14.21 231.85 14.73L231.85 14.73L231.85 14.73Q232.23 15.25 232.60 15.58L232.60 15.58L232.60 15.58Q232.53 15.72 232.39 15.86L232.39 15.86L232.39 15.86Q232.26 16.00 232.09 16.12L232.09 16.12L232.09 16.12Q231.91 16.24 231.72 16.32L231.72 16.32L231.72 16.32Q231.53 16.39 231.36 16.39L231.36 16.39L231.36 16.39Q231.06 16.39 230.78 16.10L230.78 16.10L230.78 16.10Q230.50 15.81 230.21 15.17L230.21 15.17L230.21 15.17Q229.92 14.53 229.61 13.52L229.61 13.52L229.61 13.52Q229.29 12.50 228.91 11.07L228.91 11.07L228.91 11.07Q228.76 11.07 228.61 11.07L228.61 11.07L228.61 11.07Q228.45 11.07 228.37 11.05L228.37 11.05L228.37 11.05Q228.27 10.99 228.16 10.85L228.16 10.85L228.16 10.85Q227.78 11.66 227.49 12.38L227.49 12.38L227.49 12.38Q227.19 13.09 226.96 13.76L226.96 13.76L226.96 13.76Q226.73 14.42 226.56 15.04L226.56 15.04L226.56 15.04Q226.38 15.67 226.25 16.31L226.25 16.31L226.25 16.31Q225.78 16.20 225.43 15.90L225.43 15.90L225.43 15.90Q225.08 15.61 224.77 15.08L224.77 15.08L224.77 15.08Q224.83 14.95 224.89 14.83L224.89 14.83L224.89 14.83Q224.95 14.71 225.05 14.50L225.05 14.50L225.05 14.50Q225.15 14.28 225.30 13.94L225.30 13.94L225.30 13.94Q225.44 13.61 225.69 13.05L225.69 13.05L225.69 13.05Q225.93 12.49 226.28 11.68L226.28 11.68L226.28 11.68Q226.62 10.86 227.11 9.70L227.11 9.70L227.11 9.70Q227.33 9.18 227.49 8.79L227.49 8.79L227.49 8.79Q227.65 8.40 227.78 8.04L227.78 8.04L227.78 8.04Q227.91 7.69 228.01 7.33L228.01 7.33L228.01 7.33Q228.12 6.97 228.23 6.51L228.23 6.51L228.23 6.51Q227.58 6.73 227.03 7.01L227.03 7.01L227.03 7.01Q226.48 7.28 226.11 7.59L226.11 7.59L226.11 7.59Q225.99 7.50 225.86 7.34L225.86 7.34L225.86 7.34Q225.72 7.17 225.61 6.96L225.61 6.96L225.61 6.96Q225.50 6.76 225.41 6.55L225.41 6.55L225.41 6.55Q225.33 6.34 225.32 6.17L225.32 6.17L225.32 6.17Q225.74 5.89 226.35 5.66L226.35 5.66L226.35 5.66Q226.95 5.42 227.64 5.24L227.64 5.24L227.64 5.24Q228.33 5.07 229.04 4.97L229.04 4.97L229.04 4.97Q229.75 4.87 230.37 4.87L230.37 4.87L230.37 4.87Q232.05 4.87 232.97 5.56L232.97 5.56L232.97 5.56Q233.90 6.26 233.90 7.46ZM230.31 6.02L230.48 6.29L230.48 6.29Q230.38 6.41 230.17 6.79L230.17 6.79L230.17 6.79Q229.96 7.17 229.69 7.69L229.69 7.69L229.69 7.69Q229.42 8.22 229.12 8.83L229.12 8.83L229.12 8.83Q228.82 9.45 228.54 10.05L228.54 10.05L228.54 10.05Q229.59 10.05 230.47 9.86L230.47 9.86L230.47 9.86Q231.35 9.66 231.99 9.30L231.99 9.30L231.99 9.30Q232.64 8.95 233.00 8.46L233.00 8.46L233.00 8.46Q233.35 7.98 233.35 7.39L233.35 7.39L233.35 7.39Q233.35 6.69 232.85 6.32L232.85 6.32L232.85 6.32Q232.34 5.95 231.29 5.95L231.29 5.95L231.29 5.95Q231.06 5.95 230.82 5.97L230.82 5.97L230.82 5.97Q230.58 5.99 230.31 6.02L230.31 6.02ZM245.48 10.35L245.48 10.35L245.48 10.35Q246.53 9.20 247.36 7.91L247.36 7.91L247.36 7.91Q248.19 6.62 248.91 5.01L248.91 5.01L248.91 5.01Q249.27 5.05 249.61 5.21L249.61 5.21L249.61 5.21Q249.94 5.36 250.14 5.56L250.14 5.56L250.14 5.56Q249.37 6.48 248.75 7.24L248.75 7.24L248.75 7.24Q248.12 7.99 247.60 8.66L247.60 8.66L247.60 8.66Q247.09 9.32 246.65 9.93L246.65 9.93L246.65 9.93Q246.20 10.54 245.78 11.16L245.78 11.16L245.78 11.16Q245.57 11.87 245.39 12.60L245.39 12.60L245.39 12.60Q245.21 13.33 245.07 13.99L245.07 13.99L245.07 13.99Q244.93 14.66 244.85 15.22L244.85 15.22L244.85 15.22Q244.78 15.79 244.78 16.20L244.78 16.20L244.78 16.20Q244.62 16.20 244.29 16.14L244.29 16.14L244.29 16.14Q243.95 16.07 243.60 15.99L243.60 15.99L243.60 15.99Q243.25 15.90 242.96 15.82L242.96 15.82L242.96 15.82Q242.68 15.74 242.62 15.68L242.62 15.68L242.62 15.68Q242.84 15.30 243.06 14.75L243.06 14.75L243.06 14.75Q243.28 14.20 243.49 13.59L243.49 13.59L243.49 13.59Q243.70 12.98 243.89 12.36L243.89 12.36L243.89 12.36Q244.09 11.73 244.26 11.20L244.26 11.20L244.26 11.20Q243.91 10.11 243.58 9.15L243.58 9.15L243.58 9.15Q243.25 8.19 242.94 7.41L242.94 7.41L242.94 7.41Q242.63 6.64 242.35 6.08L242.35 6.08L242.35 6.08Q242.07 5.52 241.82 5.22L241.82 5.22L241.82 5.22Q241.96 5.17 242.25 5.11L242.25 5.11L242.25 5.11Q242.54 5.05 242.88 5.00L242.88 5.00L242.88 5.00Q243.22 4.94 243.58 4.91L243.58 4.91L243.58 4.91Q243.94 4.87 244.22 4.86L244.22 4.86L244.22 4.86Q244.22 5.21 244.28 5.71L244.28 5.71L244.28 5.71Q244.34 6.22 244.45 6.79L244.45 6.79L244.45 6.79Q244.55 7.36 244.69 7.95L244.69 7.95L244.69 7.95Q244.83 8.54 244.97 9.03L244.97 9.03L244.97 9.03Q245.11 9.52 245.25 9.88L245.25 9.88L245.25 9.88Q245.38 10.23 245.48 10.35ZM262.12 4.98L262.12 4.98L262.12 4.98Q262.39 5.10 262.67 5.27L262.67 5.27L262.67 5.27Q262.95 5.45 263.19 5.63L263.19 5.63L263.19 5.63Q263.42 5.81 263.59 5.98L263.59 5.98L263.59 5.98Q263.75 6.16 263.76 6.27L263.76 6.27L263.76 6.27Q263.52 6.22 263.28 6.20L263.28 6.20L263.28 6.20Q263.05 6.17 262.85 6.17L262.85 6.17L262.85 6.17Q262.22 6.17 261.60 6.48L261.60 6.48L261.60 6.48Q260.97 6.79 260.41 7.32L260.41 7.32L260.41 7.32Q259.85 7.85 259.38 8.57L259.38 8.57L259.38 8.57Q258.90 9.28 258.56 10.09L258.56 10.09L258.56 10.09Q258.22 10.91 258.02 11.77L258.02 11.77L258.02 11.77Q257.82 12.64 257.82 13.48L257.82 13.48L257.82 13.48Q257.82 14.57 258.19 15.11L258.19 15.11L258.19 15.11Q258.55 15.64 259.25 15.64L259.25 15.64L259.25 15.64Q259.59 15.64 259.98 15.51L259.98 15.51L259.98 15.51Q260.37 15.37 260.78 15.13L260.78 15.13L260.78 15.13Q261.18 14.90 261.58 14.56L261.58 14.56L261.58 14.56Q261.97 14.22 262.30 13.82L262.30 13.82L262.30 13.82Q262.79 13.23 263.19 12.48L263.19 12.48L263.19 12.48Q263.58 11.73 263.85 10.89L263.85 10.89L263.85 10.89Q264.12 10.05 264.27 9.16L264.27 9.16L264.27 9.16Q264.42 8.27 264.42 7.42L264.42 7.42L264.42 7.42Q264.42 7.08 264.40 6.85L264.40 6.85L264.40 6.85Q264.39 6.62 264.37 6.46L264.37 6.46L264.37 6.46Q264.35 6.30 264.33 6.20L264.33 6.20L264.33 6.20Q264.32 6.10 264.31 6.03L264.31 6.03L264.31 6.03Q264.47 6.12 264.68 6.24L264.68 6.24L264.68 6.24Q264.88 6.36 265.06 6.59L265.06 6.59L265.06 6.59Q265.23 6.82 265.35 7.20L265.35 7.20L265.35 7.20Q265.47 7.57 265.47 8.18L265.47 8.18L265.47 8.18Q265.47 9.16 265.24 10.10L265.24 10.10L265.24 10.10Q265.01 11.05 264.59 11.90L264.59 11.90L264.59 11.90Q264.18 12.75 263.62 13.50L263.62 13.50L263.62 13.50Q263.06 14.24 262.42 14.80L262.42 14.80L262.42 14.80Q261.58 15.54 260.62 15.95L260.62 15.95L260.62 15.95Q259.67 16.35 258.79 16.35L258.79 16.35L258.79 16.35Q257.50 16.35 256.82 15.53L256.82 15.53L256.82 15.53Q256.14 14.71 256.14 13.12L256.14 13.12L256.14 13.12Q256.14 12.26 256.33 11.31L256.33 11.31L256.33 11.31Q256.52 10.36 256.87 9.44L256.87 9.44L256.87 9.44Q257.21 8.51 257.68 7.68L257.68 7.68L257.68 7.68Q258.16 6.85 258.73 6.21L258.73 6.21L258.73 6.21Q259.29 5.57 259.95 5.19L259.95 5.19L259.95 5.19Q260.60 4.82 261.28 4.82L261.28 4.82L261.28 4.82Q261.51 4.82 261.70 4.85L261.70 4.85L261.70 4.85Q261.90 4.89 262.12 4.98ZM274.04 16.24L274.04 16.24L274.04 16.24Q273.24 16.00 272.96 15.79L272.96 15.79L272.96 15.79Q272.68 15.57 272.68 15.19L272.68 15.19L272.68 15.19Q272.68 14.77 272.87 14.01L272.87 14.01L272.87 14.01Q273.07 13.24 273.39 12.31L273.39 12.31L273.39 12.31Q273.70 11.37 274.11 10.35L274.11 10.35L274.11 10.35Q274.51 9.32 274.93 8.39L274.93 8.39L274.93 8.39Q275.35 7.45 275.75 6.67L275.75 6.67L275.75 6.67Q276.15 5.89 276.46 5.46L276.46 5.46L276.36 4.87L276.36 4.87Q276.56 4.87 276.91 4.97L276.91 4.97L276.91 4.97Q277.26 5.07 277.61 5.21L277.61 5.21L277.61 5.21Q277.97 5.35 278.24 5.49L278.24 5.49L278.24 5.49Q278.52 5.64 278.54 5.74L278.54 5.74L278.54 5.74Q278.47 6.08 278.43 6.76L278.43 6.76L278.43 6.76Q278.39 7.43 278.39 8.20L278.39 8.20L278.39 8.20Q278.39 9.73 278.51 11.19L278.51 11.19L278.51 11.19Q278.63 12.66 279.06 14.17L279.06 14.17L279.06 14.17Q279.29 13.05 279.55 11.94L279.55 11.94L279.55 11.94Q279.80 10.82 280.08 9.81L280.08 9.81L280.08 9.81Q280.36 8.79 280.64 7.92L280.64 7.92L280.64 7.92Q280.92 7.06 281.18 6.40L281.18 6.40L281.18 6.40Q281.44 5.75 281.67 5.38L281.67 5.38L281.67 5.38Q281.89 5.01 282.07 4.98L282.07 4.98L282.07 4.98Q282.23 5.01 282.41 5.10L282.41 5.10L282.41 5.10Q282.59 5.19 282.76 5.32L282.76 5.32L282.76 5.32Q282.93 5.45 283.07 5.60L283.07 5.60L283.07 5.60Q283.21 5.75 283.29 5.91L283.29 5.91L283.29 5.91Q282.84 6.09 282.40 6.76L282.40 6.76L282.40 6.76Q281.96 7.43 281.56 8.39L281.56 8.39L281.56 8.39Q281.16 9.35 280.82 10.47L280.82 10.47L280.82 10.47Q280.48 11.59 280.22 12.68L280.22 12.68L280.22 12.68Q279.96 13.76 279.81 14.69L279.81 14.69L279.81 14.69Q279.66 15.61 279.65 16.17L279.65 16.17L279.65 16.17Q279.65 16.20 279.66 16.21L279.66 16.21L279.66 16.21Q279.62 16.23 279.57 16.23L279.57 16.23L279.57 16.23Q279.52 16.23 279.48 16.23L279.48 16.23L279.48 16.23Q278.84 16.23 278.34 16.07L278.34 16.07L278.34 16.07Q277.84 15.90 277.69 15.61L277.69 15.61L277.69 15.61Q277.40 14.43 277.20 13.34L277.20 13.34L277.20 13.34Q277.00 12.25 276.87 11.16L276.87 11.16L276.87 11.16Q276.74 10.07 276.66 8.95L276.66 8.95L276.66 8.95Q276.58 7.84 276.54 6.62L276.54 6.62L276.54 6.62Q276.28 7.04 275.98 7.72L275.98 7.72L275.98 7.72Q275.69 8.40 275.41 9.21L275.41 9.21L275.41 9.21Q275.13 10.02 274.87 10.92L274.87 10.92L274.87 10.92Q274.61 11.82 274.41 12.67L274.41 12.67L274.41 12.67Q274.22 13.52 274.11 14.29L274.11 14.29L274.11 14.29Q273.99 15.05 273.99 15.61L273.99 15.61L273.99 15.61Q273.99 15.90 274.00 16.03L274.00 16.03L274.00 16.03Q274.01 16.16 274.04 16.24ZM295.13 9.21L295.13 9.21L295.13 9.21Q295.60 9.21 295.86 9.46L295.86 9.46L295.86 9.46Q296.11 9.72 296.11 10.16L296.11 10.16L296.11 10.16Q296.11 10.28 296.09 10.39L296.09 10.39L296.09 10.39Q296.07 10.51 296.04 10.60L296.04 10.60L296.04 10.60Q295.86 10.57 295.64 10.55L295.64 10.55L295.64 10.55Q295.41 10.53 295.11 10.53L295.11 10.53L295.11 10.53Q294.50 10.53 293.89 10.63L293.89 10.63L293.89 10.63Q293.27 10.74 292.71 10.81L292.71 10.81L292.71 10.81Q292.39 11.55 292.12 12.24L292.12 12.24L292.12 12.24Q291.86 12.94 291.67 13.51L291.67 13.51L291.67 13.51Q291.48 14.08 291.38 14.50L291.38 14.50L291.38 14.50Q291.27 14.92 291.26 15.13L291.26 15.13L291.26 15.13Q292.39 14.90 293.55 14.73L293.55 14.73L293.55 14.73Q294.70 14.56 295.97 14.48L295.97 14.48L295.97 14.48Q296.13 14.71 296.23 14.99L296.23 14.99L296.23 14.99Q296.34 15.27 296.34 15.60L296.34 15.60L296.34 15.60Q296.34 15.68 296.34 15.78L296.34 15.78L296.34 15.78Q296.34 15.88 296.31 15.97L296.31 15.97L296.31 15.97Q295.92 15.96 295.48 15.95L295.48 15.95L295.48 15.95Q295.05 15.95 294.35 15.95L294.35 15.95L294.35 15.95Q293.89 15.95 293.48 15.97L293.48 15.97L293.48 15.97Q293.06 15.99 292.64 16.03L292.64 16.03L292.64 16.03Q292.22 16.07 291.75 16.14L291.75 16.14L291.75 16.14Q291.28 16.21 290.70 16.31L290.70 16.31L290.70 16.31Q290.05 16.06 289.45 15.08L289.45 15.08L289.45 15.08Q289.69 14.57 290.12 13.54L290.12 13.54L290.12 13.54Q290.54 12.52 291.20 10.79L291.20 10.79L291.20 10.79Q290.57 10.60 290.37 10.09L290.37 10.09L290.37 10.09Q290.44 10.02 290.78 9.92L290.78 9.92L290.78 9.92Q291.12 9.81 291.61 9.70L291.61 9.70L291.61 9.70Q291.82 9.16 291.96 8.75L291.96 8.75L291.96 8.75Q292.11 8.34 292.22 7.99L292.22 7.99L292.22 7.99Q292.33 7.63 292.43 7.29L292.43 7.29L292.43 7.29Q292.52 6.94 292.60 6.54L292.60 6.54L292.60 6.54Q292.11 6.51 291.83 6.27L291.83 6.27L291.83 6.27Q291.55 6.02 291.55 5.63L291.55 5.63L291.55 5.63Q291.55 5.52 291.59 5.36L291.59 5.36L291.59 5.36Q291.62 5.21 291.66 5.10L291.66 5.10L291.66 5.10Q291.94 5.14 292.20 5.15L292.20 5.15L292.20 5.15Q292.46 5.17 292.88 5.17L292.88 5.17L292.88 5.17Q293.76 5.17 294.53 5.12L294.53 5.12L294.53 5.12Q295.30 5.07 295.93 5.01L295.93 5.01L295.93 5.01Q296.55 4.96 297.00 4.91L297.00 4.91L297.00 4.91Q297.44 4.86 297.68 4.86L297.68 4.86L297.68 4.86Q298.00 4.86 298.26 5.19L298.26 5.19L298.26 5.19Q298.51 5.53 298.63 6.15L298.63 6.15L298.63 6.15Q298.20 6.10 297.93 6.09L297.93 6.09L297.93 6.09Q297.65 6.08 297.44 6.08L297.44 6.08L297.44 6.08Q296.67 6.08 296.04 6.15L296.04 6.15L296.04 6.15Q295.40 6.23 294.81 6.31L294.81 6.31L294.81 6.31Q294.73 6.44 294.62 6.64L294.62 6.64L294.62 6.64Q294.52 6.83 294.35 7.18L294.35 7.18L294.35 7.18Q294.18 7.53 293.94 8.06L293.94 8.06L293.94 8.06Q293.69 8.60 293.34 9.39L293.34 9.39L293.34 9.39Q293.87 9.31 294.34 9.26L294.34 9.26L294.34 9.26Q294.81 9.21 295.13 9.21Z"></path></g></svg>