<svg data-v-fde0c5aa="" xmlns="http://www.w3.org/2000/svg" viewBox="0 0 300 300" class="font"><!----><defs data-v-fde0c5aa=""><!----></defs><rect data-v-fde0c5aa="" fill="#FAF6F1" x="0" y="0" width="300px" height="300px" class="logo-background-square"></rect><defs data-v-fde0c5aa=""><linearGradient data-v-fde0c5aa="" gradientTransform="rotate(25)" id="9a7fc349-d832-405e-95f6-1c5d9d5f4af8" x1="0%" y1="0%" x2="100%" y2="0%"><stop data-v-fde0c5aa="" offset="0%" stop-color="#913C00" stop-opacity="1"></stop><stop data-v-fde0c5aa="" offset="100%" stop-color="#D9AD76" stop-opacity="1"></stop></linearGradient></defs><g data-v-fde0c5aa="" id="5f32f94c-4d93-48c4-b1e4-f1c4638c7c88" fill="url(#9a7fc349-d832-405e-95f6-1c5d9d5f4af8)" transform="matrix(5.726184551924963,0,0,5.726184551924963,36.10619446373416,106.8245673316936)"><path d="M2.73 2.42L0.68 2.42L0.68 8.91L0.68 8.91Q0.68 10.49 1.95 11.58L1.95 11.58L1.95 11.58Q3.21 12.67 5.13 12.67L5.13 12.67L5.13 12.67Q7.04 12.67 8.31 11.58L8.31 11.58L8.31 11.58Q9.57 10.49 9.57 8.91L9.57 8.91L9.57 2.42L7.52 2.42L7.52 8.37L7.52 8.37Q7.52 9.53 6.84 10.08L6.84 10.08L6.84 10.08Q6.15 10.62 5.13 10.62L5.13 10.62L5.13 10.62Q4.10 10.62 3.42 10.08L3.42 10.08L3.42 10.08Q2.73 9.53 2.73 8.37L2.73 8.37L2.73 2.42ZM15.73 9.93L11.49 9.93L11.49 8.57L15.73 8.57L15.73 9.93ZM19.98 12.67L17.93 12.67L17.93 2.42L25.14 2.42L25.14 4.33L19.98 4.33L19.98 6.52L23.79 6.52L23.79 8.43L19.98 8.43L19.98 12.67ZM26.63 12.67L26.63 2.41L28.68 2.41L28.68 12.67L26.63 12.67ZM39.10 2.42L30.21 2.42L30.21 4.33L33.63 4.33L33.63 12.67L35.68 12.67L35.68 4.33L39.10 4.33L39.10 2.42Z"></path></g><!----><!----></svg>