<svg data-v-423bf9ae="" xmlns="http://www.w3.org/2000/svg" viewBox="0 0 224.67834685301426 60" class="font"><!----><!----><!----><g data-v-423bf9ae="" id="3c6eacc5-720e-41cd-88b8-ff21483ce0bd" fill="white" transform="matrix(5.847953085917131,0,0,5.847953085917131,-3.976609501500562,-14.093568154249859)"><path d="M2.73 2.42L0.68 2.42L0.68 8.91L0.68 8.91Q0.68 10.49 1.95 11.58L1.95 11.58L1.95 11.58Q3.21 12.67 5.13 12.67L5.13 12.67L5.13 12.67Q7.04 12.67 8.31 11.58L8.31 11.58L8.31 11.58Q9.57 10.49 9.57 8.91L9.57 8.91L9.57 2.42L7.52 2.42L7.52 8.37L7.52 8.37Q7.52 9.53 6.84 10.08L6.84 10.08L6.84 10.08Q6.15 10.62 5.13 10.62L5.13 10.62L5.13 10.62Q4.10 10.62 3.42 10.08L3.42 10.08L3.42 10.08Q2.73 9.53 2.73 8.37L2.73 8.37L2.73 2.42ZM15.73 9.93L11.49 9.93L11.49 8.57L15.73 8.57L15.73 9.93ZM19.98 12.67L17.93 12.67L17.93 2.42L25.14 2.42L25.14 4.33L19.98 4.33L19.98 6.52L23.79 6.52L23.79 8.43L19.98 8.43L19.98 12.67ZM26.63 12.67L26.63 2.41L28.68 2.41L28.68 12.67L26.63 12.67ZM39.10 2.42L30.21 2.42L30.21 4.33L33.63 4.33L33.63 12.67L35.68 12.67L35.68 4.33L39.10 4.33L39.10 2.42Z"></path></g><!----><!----></svg>